<svg xmlns="http://www.w3.org/2000/svg" id="Layer_1" data-name="Layer 1" viewBox="0.01 0 763.45 310.37"><path d="M328.77,105.8l16.14-.34c1.7,0,11.71-.23,13.64-.23,11.83,0,20.35,1.25,27.63,4.21,13.64,5.57,22.06,19.78,22.06,35,0,17.17-10,28.2-19.33,32.29-9.55,4.21-18.65,4.66-25.81,4.66H328.77v-5.12c10,0,11.14-2.84,11.14-8.86V119.9c0-5.8-.91-8.87-11.14-8.87Zm27.05,58.55c0,7.62,0,10.91,9.78,10.91,20.12,0,24.67-18.41,24.67-31.15,0-16-6.82-26.71-16.59-30.58-4.78-1.93-9.22-2-17.86-2Z" transform="translate(-44.42 -24.82)" fill="#a6093d"/><path d="M473,181.4H412.07v-4.64c9.09,0,9.91-2.79,9.91-8v-43c0-5-.51-8-9.91-8v-4.64h56.68l.93,17.75H465c-3.11-12.07-7.55-12.18-15.8-12.18h-12.8v24.16h6.91c6.92,0,8.37-1.24,8.78-8.57H457v22.71h-4.64c-.42-7.53-2.28-8.57-8.88-8.57h-7v16.11c0,8.88,0,11.36,9.81,11.36h5.47c4.23,0,14.56,0,17-16.93h4.75Z" transform="translate(-44.42 -24.82)" fill="#a6093d"/><path d="M497.44,118.63c-6.19,0-13.94,0-14.56,13.83h-4.75v-19.4h67.53v19.4H540.9c-1.33-13.83-8.77-13.83-13.11-13.83h-8.67V168.7c0,5.06.62,8.06,9.91,8.06v4.64H494.76v-4.64c9,0,9.91-2.69,9.91-8.06V118.63Z" transform="translate(-44.42 -24.82)" fill="#a6093d"/><path d="M575.38,168.7c0,5.06.72,8.06,10,8.06v4.64H551.12v-4.64c8.88,0,9.8-2.69,9.8-8.06V125.55c0-5.16-.72-8-9.8-8v-4.75l15.79-.52c2.59,0,8-.31,13.73-.1s12.19.62,16.52,1.75c7.13,1.86,14.87,7.23,14.87,17.45,0,6.71-3.92,13.42-15,16.42,5.26,3.09,7.54,6.7,14.35,17.13,6.4,9.81,8.36,11.47,13.42,11.88v4.64H606.56c-2.68-3.1-5.68-8.05-8.67-12.9l-4.65-7.64c-5.78-9.5-6.19-10-15.28-10h-2.58Zm0-23.43h3.2c6.4,0,18-.11,18-14s-12.71-13.63-21.17-13.42Z" transform="translate(-44.42 -24.82)" fill="#a6093d"/><path d="M658.79,111.82c30.87,0,38.51,23,38.51,35.41,0,18.17-13.11,35.41-38.1,35.41-27.15,0-38.19-19.41-38.19-35.51,0-17.66,12.38-35.31,37.78-35.31m.52,64.83c21,0,21.68-22.61,21.68-29.63,0-13.93-4.13-29.21-21.79-29.21-18.68,0-21.88,16.21-21.88,29.21,0,7.54.62,29.63,22,29.63" transform="translate(-44.42 -24.82)" fill="#a6093d"/><path d="M700.08,113.06h34.69v4.64c-9.09,0-10.12,2.58-10.12,8.06V168.7c0,5.17.82,8.06,10.12,8.06v4.64H700.08v-4.64c9.08,0,10.12-2.59,10.12-8.06V125.76c0-5.27-.83-8.06-10.12-8.06Z" transform="translate(-44.42 -24.82)" fill="#a6093d"/><path d="M758.92,118.63c-6.2,0-13.94,0-14.56,13.83h-4.75v-19.4h67.53v19.4h-4.76c-1.34-13.83-8.77-13.83-13.11-13.83H780.6V168.7c0,5.06.62,8.06,9.91,8.06v4.64H756.23v-4.64c9,0,9.92-2.69,9.92-8.06V118.63Z" transform="translate(-44.42 -24.82)" fill="#a6093d"/><path d="M345.76,209.25v44.66c0,7.71.11,11.22,10.88,11.22v5.1H328.87v-5.1c10.65,0,10.77-3.51,10.77-11.22v-42.5c0-7.93,0-11.11-10.77-11.11v-5.1H356.3l24.93,52.93,24.93-52.93H433v5.1c-10,0-11,3.06-11,8.84v47.15c0,5.44.79,8.84,11,8.84v5.1H395.4v-5.1c9.86,0,10.76-3.17,10.76-8.84v-47l-28.33,61h-3.4Z" transform="translate(-44.42 -24.82)" fill="#a6093d"/><path d="M499.13,270.23H438.21v-4.65c9.09,0,9.92-2.79,9.92-8.05V214.58c0-5-.52-8.06-9.92-8.06v-4.64h56.68l.93,17.76h-4.64c-3.1-12.08-7.54-12.19-15.8-12.19h-12.8v24.17h6.92c6.91,0,8.36-1.24,8.77-8.57h4.86v22.71h-4.65c-.41-7.53-2.27-8.57-8.88-8.57h-7V253.3c0,8.88,0,11.35,9.81,11.35h5.47c4.23,0,14.56,0,17-16.93h4.75Z" transform="translate(-44.42 -24.82)" fill="#a6093d"/><path d="M530.4,257.53c0,5.06.72,8.05,10,8.05v4.65H506.14v-4.65c8.88,0,9.81-2.68,9.81-8.05V214.37c0-5.16-.73-8.05-9.81-8.05v-4.75l15.79-.52c2.59,0,8-.3,13.73-.1s12.19.62,16.53,1.76c7.12,1.86,14.86,7.22,14.86,17.45,0,6.71-3.92,13.42-15,16.41,5.26,3.1,7.54,6.71,14.35,17.14,6.4,9.81,8.37,11.46,13.42,11.87v4.65H561.58c-2.68-3.1-5.68-8.06-8.68-12.91l-4.64-7.64c-5.78-9.5-6.19-10-15.28-10H530.4Zm0-23.44h3.2c6.41,0,18-.1,18-14s-12.7-13.63-21.17-13.42Z" transform="translate(-44.42 -24.82)" fill="#a6093d"/><path d="M643.13,269.5h-4.75a20.65,20.65,0,0,0-3.51-7.74c-2.58,2.79-9,9.71-22.1,9.71-18.37,0-34.37-14.36-34.37-35.11,0-19.2,14.24-35.72,35.31-35.72,12.28,0,18.48,5.68,21.16,8.36a26.91,26.91,0,0,0,2.17-6.29h4.54l.83,25.19h-4.85c-2.79-13.42-12.5-21.68-22.72-21.68-11.35,0-20.13,9-20.13,28.8,0,27,14.25,30.46,20,30.46,13.11,0,21.58-12.39,23.54-21.79h4.85Z" transform="translate(-44.42 -24.82)" fill="#a6093d"/><path d="M658.81,213.65a13.36,13.36,0,0,1-.72-1.13c-3.1-5-4.75-5.79-9.09-6v-4.65h32v4.65c-3.72,0-7,0-7,3,0,1.34.52,2.58,3.41,7.44l10.63,18,10.12-16c2.06-3.31,3.3-5.47,3.3-7.64,0-4.75-4.34-4.75-7.85-4.75v-4.65h24.89v4.65c-5.68.41-7.23,2.58-13.73,12.59l-14.35,22.2v16.21c0,4.65.41,8.05,9.91,8.05v4.65H665.93v-4.65c9,0,10-2.58,10-8.05V242.25Z" transform="translate(-44.42 -24.82)" fill="#a6093d"/><path d="M334.83,67h11.35v1.52c-3,0-3.3.89-3.3,2.65v9.38a12,12,0,0,0,.59,4.42,5.15,5.15,0,0,0,4.89,2.95,5.84,5.84,0,0,0,5.33-3,12,12,0,0,0,.75-4.93V71.81c0-2.34,0-3.33-3.33-3.33V67h8.29v1.52c-3.13,0-3.13,1.13-3.13,3.33v8.3c0,2.58,0,4-1,5.77-1.94,3.5-6.05,4-7.88,4-2.69,0-6.84-1-8.36-4.18a10.37,10.37,0,0,1-.92-5.17l0-9.38c0-1.69-.24-2.65-3.27-2.65Z" transform="translate(-44.42 -24.82)" fill="#002d72"/><path d="M385.05,85c0,2.16.07,3.09,3.08,3.09v1.4h-7.65v-1.4c2.92,0,2.89-1,2.89-3.09V74.44c0-2.74-.06-3.9-2.86-4.21v-1.4h6l11.74,13.86V73.28c0-2-.1-3-3-3v-1.4H403v1.4c-3,0-3.05.84-3.05,3V89.64h-1.4l-13.49-16Z" transform="translate(-44.42 -24.82)" fill="#002d72"/><path d="M422.3,68.83h10.47v1.4c-2.74,0-3,.78-3,2.43v13c0,1.55.24,2.43,3,2.43v1.4H422.3v-1.4c2.75,0,3.05-.78,3.05-2.43v-13c0-1.59-.24-2.43-3.05-2.43Z" transform="translate(-44.42 -24.82)" fill="#002d72"/><path d="M455.84,73.38c-1.11-2.65-1.36-3.15-3.79-3.15v-1.4h10.49v1.4c-1.68.06-2.65.1-2.65,1.16a3.91,3.91,0,0,0,.38,1.46l4.73,11,4.39-10.3a4.64,4.64,0,0,0,.56-1.84c0-1.47-1.46-1.47-2.73-1.5v-1.4h7.62v1.4c-2,.1-2.39.6-3.83,3.93l-6.72,15.66h-1.41Z" transform="translate(-44.42 -24.82)" fill="#002d72"/><path d="M512.62,89.45H494.25v-1.4c2.74,0,3-.84,3-2.43v-13c0-1.49-.16-2.43-3-2.43v-1.4h17.1l.27,5.36h-1.4c-.93-3.65-2.27-3.68-4.76-3.68H501.6V77.8h2.09c2.08,0,2.52-.37,2.64-2.58h1.47v6.85h-1.41c-.12-2.28-.68-2.59-2.67-2.59H501.6v4.86c0,2.68,0,3.43,3,3.43h1.65c1.27,0,4.39,0,5.14-5.11h1.43Z" transform="translate(-44.42 -24.82)" fill="#002d72"/><path d="M540.28,85.62c0,1.52.22,2.43,3,2.43v1.4H533v-1.4c2.68,0,3-.81,3-2.43v-13c0-1.55-.22-2.43-3-2.43V68.74l4.77-.16c.77,0,2.4-.09,4.14,0a25.43,25.43,0,0,1,5,.53c2.15.56,4.49,2.18,4.49,5.26,0,2-1.19,4-4.52,5,1.59.93,2.27,2,4.33,5.16,1.93,3,2.52,3.46,4.05,3.59v1.4h-5.51a33.81,33.81,0,0,1-2.62-3.89l-1.4-2.31c-1.75-2.86-1.87-3-4.61-3h-.78Zm0-7.07h1c1.94,0,5.43,0,5.43-4.24s-3.84-4.11-6.39-4Z" transform="translate(-44.42 -24.82)" fill="#002d72"/><path d="M575.23,82h1.4c.59,2.36,2.08,6.13,6,6.13,2.11,0,3.42-1.34,3.42-3,0-2-1.59-2.74-4.79-4.23-5.2-2.43-6-4.86-6-6.67a6,6,0,0,1,6.26-5.79,6.71,6.71,0,0,1,5,2.43,11.29,11.29,0,0,0,.5-1.81h1.43v5.76H587c-.31-1-1.49-4.7-5.29-4.7-1.84,0-3,1.06-3,2.59,0,1.93,1.73,2.71,4.6,4,3.4,1.59,6.63,3.15,6.63,6.76a6.55,6.55,0,0,1-6.66,6.29,7.73,7.73,0,0,1-6-2.83,6.73,6.73,0,0,0-.62,2.08h-1.4Z" transform="translate(-44.42 -24.82)" fill="#002d72"/><path d="M610.08,68.83h10.46v1.4c-2.74,0-3,.78-3,2.43v13c0,1.55.25,2.43,3,2.43v1.4H610.08v-1.4c2.74,0,3-.78,3-2.43v-13c0-1.59-.25-2.43-3-2.43Z" transform="translate(-44.42 -24.82)" fill="#002d72"/><path d="M646.05,70.51c-1.87,0-4.2,0-4.39,4.18h-1.44V68.83h20.37v5.86h-1.43c-.41-4.18-2.65-4.18-3.95-4.18h-2.62V85.62c0,1.52.18,2.43,3,2.43v1.4H645.24v-1.4c2.71,0,3-.81,3-2.43V70.51Z" transform="translate(-44.42 -24.82)" fill="#002d72"/><path d="M683.33,72.38a2.68,2.68,0,0,1-.22-.34c-.93-1.5-1.43-1.74-2.74-1.81v-1.4H690v1.4c-1.12,0-2.12,0-2.12.91,0,.4.16.77,1,2.24l3.21,5.42L695.2,74a4.76,4.76,0,0,0,1-2.3c0-1.44-1.3-1.44-2.36-1.44v-1.4h7.5v1.4c-1.71.13-2.18.78-4.14,3.8l-4.33,6.7v4.89c0,1.4.12,2.43,3,2.43v1.4H685.48v-1.4c2.71,0,3-.78,3-2.43V81Z" transform="translate(-44.42 -24.82)" fill="#002d72"/><path d="M758.8,68.46c9.31,0,11.62,6.94,11.62,10.68,0,5.48-4,10.68-11.5,10.68-8.19,0-11.52-5.85-11.52-10.71,0-5.33,3.74-10.65,11.4-10.65M759,88c6.32,0,6.54-6.82,6.54-8.94,0-4.21-1.24-8.82-6.57-8.82-5.64,0-6.6,4.9-6.6,8.82,0,2.27.19,8.94,6.63,8.94" transform="translate(-44.42 -24.82)" fill="#002d72"/><path d="M798.17,85.62c0,1.31.06,2.43,2.83,2.43h.44v1.4H790.85v-1.4c2.67,0,2.95-.84,2.95-2.43v-13c0-1.49-.18-2.43-2.95-2.43v-1.4h16.88l.15,5.36h-1.43c-.81-3.68-2.4-3.68-4.61-3.68h-3.67V77.8h1.92c1.75,0,2.31-.34,2.44-2.55h1.4V82.1H802.5c-.13-2.18-.53-2.62-2.47-2.62h-1.86Z" transform="translate(-44.42 -24.82)" fill="#002d72"/><path d="M45.72,24.82,44.65,37.64C44.45,40,43,60.7,51.2,75.63c6.06,11,18.6,18.61,37.27,22.53a162.44,162.44,0,0,0,31.74,3.06c1.56,0,2.66,0,3.15,0H136.8l-28.23,16c-7.08,3.6-18.6,13.69-19.42,30.23l0,.35v13.5c-16,4.13-27.79,18-27.79,34.52,0,7.59,1.77,14.83,6.44,21l0,.07.06.07A26.47,26.47,0,0,0,82,226.52c2.62.55,4.31.76,4.74.84a.53.53,0,0,1,.38.22.51.51,0,0,1,0,.45,19.6,19.6,0,0,1-2.46,2.74,99.94,99.94,0,0,0-30.2,46.5,96,96,0,0,0-4.11,27.92l-.69,30H233.91c3.45,0,34.18-.87,49.71-21.49,11.12-14.76,11.56-32.92,11.57-35.28l.14-190.12a63.55,63.55,0,0,0-63.48-63.48Z" transform="translate(-44.42 -24.82)" fill="#002d72"/><path d="M231.85,31.81a56.55,56.55,0,0,1,56.48,56.48l-.14,190.1c0,1.81-.34,18.08-10.15,31.1-5.57,7.39-14.21,12.75-25.67,15.93a76.09,76.09,0,0,1-18.57,2.77h-177l.52-22.84v-.17a89,89,0,0,1,3.81-25.88,92.78,92.78,0,0,1,28.06-43.21l.17-.15.16-.16C92.34,233,93,231.92,93.42,231a7.38,7.38,0,0,0-5.33-10.53l-.84-.13c-.73-.12-1.92-.3-3.56-.64a19.5,19.5,0,0,1-10.21-7.05l0,0,0-.06,0,0,0,0c-3.37-4.42-5-9.89-5-16.72,0-12.91,9.26-24.32,22.54-27.75l5.25-1.35V147.75c.67-13.3,10.12-21.56,15.61-24.34l.14-.08.14-.07,28.22-16,23.1-13.08H123.17c-.47,0-1.5,0-3,0A154.74,154.74,0,0,1,89.9,91.31c-16.57-3.48-27.54-9.89-32.57-19-7.35-13.36-5.78-33.2-5.71-34l.53-6.41h179.7" transform="translate(-44.42 -24.82)" fill="#fff"/><path d="M143.79,253.11c-10.09,17.59-22.16,14.92-44,25.41a119,119,0,0,0-35.56,26.7c2.1-22,3.68-28.1,11.66-38.71C84.79,254.74,103,256.08,105.2,256c3.39-.09,15.51-.58,25.88-10,7.45-6.78,8.84-17,9-22.3L140,128.27c-.9.39-7.29,3.24-7.64,4.66a4.64,4.64,0,0,0-.12.66L132.18,222a45.85,45.85,0,0,1-1.26,9.37c-3.58,9.79-14,16.88-26.27,16.88h-1a58.34,58.34,0,0,0-12.39,1.16A43.33,43.33,0,0,0,85.42,251c1.38-2.24,4-5.48,8.92-9.43h0L96.13,240c5.76-5.78,6.83-13.41,7-17.65V208.25a6.24,6.24,0,0,0-3.33-5.53l-.12-.06a7,7,0,0,0-.78-.32,9.19,9.19,0,0,0-2.42-.43c-3.71-.12-5.67,1-6.5,1.72-4,3.55.21,9.85.21,9.85h-.76c-.35,0-.69,0-1,0h0a11.21,11.21,0,0,1-6.19-2.52,16.4,16.4,0,0,1-2.59-2.66,20.51,20.51,0,0,1-4.27-12.48c0-12,10.6-21.77,23.66-21.77h4.13V148.1c.65-13.17,12-18.56,12-18.56L176.1,95l.09.34a32.93,32.93,0,0,0,8.92,13.53c11.35,10.49,27.36,10.93,35.76,1.84a18.32,18.32,0,0,0,2.54-3.51v0s12.31,10.9,26.66,9.07V242.83c.11,8.92,7.45,17.56,16.38,17.56,2.84,0,4.2-.75,6.64-2.12,0,0-3.54,18.19-22.41,18.12l-9.51,0c-8.6,0-10.47.41-15.61,2.42-.67.24-1.32.5-1.94.77V131.65a9.24,9.24,0,0,1-9.38-4.57,34.24,34.24,0,0,1-5,3.81V270l-3.87,3.16c-27.4-9.44-50.56-7.8-50.56-7.8a94,94,0,0,1,9.47-11V131.58A34.1,34.1,0,0,1,153,121.53l-3.13,1.74V224.76c-.08,5.72,1.08,15.84-6.09,28.35m48.22-3s7,2.22,7.71,3.23V135.21a44.49,44.49,0,0,1-7.71,1.64Z" transform="translate(-44.42 -24.82)" fill="#002d72"/><path d="M58.59,38.81H231.85a49.49,49.49,0,0,1,49.49,49.48V239.87a11.38,11.38,0,0,1-22.75,0V106.69s-9.56,2.78-16.74.56c-11-3.38-21.11-14.14-23.56-16-4.43-3.32-10.43-4.08-15.86-4.08H123.15c-1.63,0-48.66,1.75-59.69-18.3C57,57.23,58.59,38.81,58.59,38.81" transform="translate(-44.42 -24.82)" fill="#a6093d"/><path d="M62.06,321.2s29.54-51.5,101-47.81c40.08,2.07,55.38,13.79,55.38,13.79,2.88,2,4.2,2.1,5.16,1.75s6.19-3.82,13.38-5c8-1.31,12.36,1.23,24.66-2,6.38-1.68,15.53-10.49,18-22.91,0,0,0-.08,0-.17a.87.87,0,0,1,1.72.14l-.15,19.36s0,15.33-8.74,26.93C260.62,321,233.8,321.2,233.8,321.2Z" transform="translate(-44.42 -24.82)" fill="#a6093d"/></svg>