<?xml version="1.0" encoding="UTF-8" standalone="no"?>
<svg
   width="128"
   height="128"
   viewBox="0 0 128 128"
   fill="none"
   version="1.1"
   id="svg3"
   sodipodi:docname="Vegas Pro 21.0 logo.svg"
   inkscape:version="1.3.2 (091e20ef0f, 2023-11-25, custom)"
   xmlns:inkscape="http://www.inkscape.org/namespaces/inkscape"
   xmlns:sodipodi="http://sodipodi.sourceforge.net/DTD/sodipodi-0.dtd"
   xmlns="http://www.w3.org/2000/svg"
   xmlns:svg="http://www.w3.org/2000/svg">
  <defs
     id="defs3" />
  <sodipodi:namedview
     id="namedview3"
     pagecolor="#ffffff"
     bordercolor="#000000"
     borderopacity="0.25"
     inkscape:showpageshadow="2"
     inkscape:pageopacity="0.0"
     inkscape:pagecheckerboard="0"
     inkscape:deskcolor="#d1d1d1"
     inkscape:zoom="6.59375"
     inkscape:cx="63.924171"
     inkscape:cy="64"
     inkscape:window-width="1908"
     inkscape:window-height="1050"
     inkscape:window-x="5"
     inkscape:window-y="23"
     inkscape:window-maximized="1"
     inkscape:current-layer="svg3" />
  <path
     d="M 0,117.33199 V 10.666667 C 0,4.778667 4.778572,0 10.667788,0 H 117.33221 C 123.22142,0 128,4.778667 128,10.666667 V 117.33199 C 128,123.22133 123.22142,128 117.33221,128 H 10.667788 C 4.778572,128 0,123.22133 0,117.33199 Z"
     fill="#406aff"
     id="path2"
     style="stroke-width:1.33332" />
  <path
     fill="#fbfbfb"
     d="M 49.824212,93.120005 32.004565,32.000002 h 12.991743 c 1.779964,0 3.3426,1.178666 3.841257,2.892 l 13.683728,47.296002 c 0.08533,0.286667 0.347993,0.478667 0.646654,0.478667 h 1.662634 c 0.297327,0 0.559989,-0.192 0.64532,-0.478667 L 79.15963,34.892002 c 0.497323,-1.713334 2.061292,-2.892 3.841257,-2.892 H 95.992634 L 78.170316,93.120005 c -0.497323,1.70533 -2.063959,2.88 -3.839924,2.88 h -20.66359 c -1.778631,0 -3.343933,-1.17467 -3.84259,-2.88 z"
     id="path3"
     style="stroke-width:1.33332" />
</svg>
